<svg xmlns="http://www.w3.org/2000/svg" xmlns:xlink="http://www.w3.org/1999/xlink"><symbol id="arrow" viewBox="0 0 92 62"><g fill="none">
    <g stroke="currentColor" stroke-width="2" stroke-linecap="round" stroke-linejoin="round">
        <path d="M40 52.2A29.8 29.8 0 0 0 91 31 30 30 0 0 0 55.3 1.6c-5.8 1.1-11.1 4-15.3 8.2"/>
        <path d="M5 31h60m-7-7 7 7-7 7"/>
    </g>
</g></symbol><symbol id="arrow_down" viewBox="0 0 62 92"><g fill="none">
    <g stroke="currentColor" stroke-width="2" stroke-linecap="round">
        <path d="M9.787 40a29.837 29.837 0 0 0-8.21 15.297 29.76 29.76 0 0 0 1.707 17.26 29.902 29.902 0 0 0 11.049 13.408A30.089 30.089 0 0 0 31 91a30.089 30.089 0 0 0 16.667-5.035 29.902 29.902 0 0 0 11.05-13.407 29.76 29.76 0 0 0 1.706-17.262A29.836 29.836 0 0 0 52.213 40"/>
        <path d="M31 5v60M38 58l-7 7-7-7" stroke-linejoin="round"/>
    </g>
</g></symbol><symbol id="attention" viewBox="0 0 22 22"><g fill="none">
    <path fill-rule="evenodd" clip-rule="evenodd" d="M11 22c6.075 0 11-4.925 11-11S17.075 0 11 0 0 4.925 0 11s4.925 11 11 11Zm-1-6.6a1 1 0 0 1 1-1h.011a1 1 0 1 1 0 2H11a1 1 0 0 1-1-1Zm2-8.8a1 1 0 1 0-2 0V11a1 1 0 1 0 2 0V6.6Z" fill="currentColor"/>
</g></symbol><symbol id="door" viewBox="0 0 24 24"><g fill="none">
    <g stroke="currentColor" fill="transparent" stroke-width="2" stroke-linecap="round" stroke-linejoin="round">
        <path d="m10 17 5-5-5-5M15 12H3M15 3h4a2 2 0 0 1 2 2v14a2 2 0 0 1-2 2h-4"/>
    </g>
</g></symbol><symbol id="dot" viewBox="0 0 18 18"><g fill="none">
    <circle cx="9" cy="9" r="9" fill="currentColor"/>
</g></symbol><symbol id="hands" viewBox="0 0 22 18"><g fill="none">
    <path d="M15.48 7.41c-.39.39-1.04.39-1.43 0L9.58 2.95 2.53 9.99l-.66-.63a3 3 0 0 1 0-4.24L6.11.88a3 3 0 0 1 4.24 0L15.48 6c.39.39.39 1.02 0 1.41Zm.7-2.12c.78.78.78 2.05 0 2.83-1.27 1.27-2.61.22-2.83 0L9.59 4.36 4.02 9.93a.996.996 0 0 0 0 1.41c.39.39 1.02.39 1.42 0l4.62-4.62.71.71-4.62 4.62a.996.996 0 0 0 0 1.41c.39.39 1.02.39 1.42 0l4.62-4.62.71.71-4.62 4.62a.997.997 0 0 0 1.41 1.41l4.62-4.62.71.71-4.62 4.62a.998.998 0 0 0 .705 1.702.997.997 0 0 0 .705-.292l8.32-8.34a3 3 0 0 0 0-4.24L15.89.88a3.001 3.001 0 0 0-4.18-.06l4.47 4.47Z" fill="currentColor"/>
</g></symbol><symbol id="home" viewBox="0 0 18 21"><g fill="none">
    <g fill="currentColor">
        <path d="m17 7-6-5.26a3 3 0 0 0-4 0L1 7a3 3 0 0 0-1 2.26V18a3 3 0 0 0 3 3h12a3 3 0 0 0 3-3V9.25A3 3 0 0 0 17 7Zm-6 12H7v-5a1 1 0 0 1 1-1h2a1 1 0 0 1 1 1v5Zm5-1a1 1 0 0 1-1 1h-2v-5a3 3 0 0 0-3-3H8a3 3 0 0 0-3 3v5H3a1 1 0 0 1-1-1V9.25a1 1 0 0 1 .34-.75l6-5.25a1 1 0 0 1 1.32 0l6 5.25a1 1 0 0 1 .34.75V18Z"/>
        <path d="M16 18a1 1 0 0 1-1 1h-2v-5a3 3 0 0 0-3-3H8a3 3 0 0 0-3 3v5H3a1 1 0 0 1-1-1V9.25a1 1 0 0 1 .34-.75l6-5.25a1 1 0 0 1 1.32 0l6 5.25a1 1 0 0 1 .34.75V18Z"/>
    </g>
</g></symbol><symbol id="logo" viewBox="0 0 202 147"><g fill="none">
    <path fill="#1F1E1E" d="M0 0h147v147H0z"/>
    <path d="M39.965 72.439H26.633V50.032h-.032v-.033h-4.686V73h18.05v-.561ZM43.932 73h18.117v-.561H48.618V61.285h10.494v-.594H48.618V50.56h13.43v-.561H43.933V73ZM70.7 73V50.56c2.87 0 11.714 1.089 12.374 13.893V73h4.686V49.999h-4.686v10.329C81.655 54.19 77.167 49.999 70.7 49.999h-4.686V73H70.7ZM97.39 73V50.56c2.87 0 11.714 1.089 12.374 13.893V73h4.686V49.999h-4.686v10.329c-1.419-6.138-5.907-10.329-12.375-10.329h-4.686V73h4.686ZM119.393 73h4.686V49.999h-4.686V73Z" fill="#fff"/>
    <path fill="#BC3324" d="M81 92h121v42H81z"/>
    <path d="M108.922 124h.54l2.94-8.55h8.55l3.33 8.55h4.47l-8.1-20.91h-4.53l-7.2 20.91Zm7.5-20.25 4.35 11.19h-8.19l3.84-11.19ZM132.644 103.09V124h4.26v-7.23h5.07l4.89 7.2h4.86l-5.16-7.65c3-.78 5.28-2.64 5.28-6.81 0-5.22-3.81-6.87-8.25-6.87-4.68 0-6.03 3.51-6.69 7.41v-6.96h-4.26Zm5.43 4.38c.81-2.94 2.91-4.14 4.77-4.29 4.47-.42 4.65 2.43 4.65 6.33 0 6.33-3.36 6.75-6.24 6.75h-4.35s-.12-4.14 1.17-8.79ZM162.084 103.6l.03 20.4h4.26v-20.4h8.61v-.51h-21.51v.51h8.61Z" fill="#fff"/>
</g></symbol><symbol id="logo_big" viewBox="0 0 1920 325"><g fill="none">
    <g fill="currentColor">
        <path d="M485.389 317.073V0H0v325h647.345v-7.927H485.389ZM675.453 325h200.745v-7.927H713.443V159.935h126.765v-7.926H713.443V7.927H876V0H675.453v325ZM941.896 325V8.393c34.39 0 141.564 13.989 149.554 194.907V325h37.99V0h-37.99v143.615c-9.59-48.027-28.39-82.998-57.18-108.177C998.68 3.73 958.291 0 941.896 0h-37.99v325h37.99ZM1207.45 325V8.393c34.39 0 141.56 13.989 149.56 194.907V325H1395V0h-37.99v143.615c-9.6-48.027-28.4-82.998-57.19-108.177C1264.23 3.73 1223.84 0 1207.45 0h-37.99v325h37.99ZM1473 0h-37.99v325H1920V0h-447Z"/>
    </g>
</g></symbol><symbol id="phone" viewBox="0 0 20 20"><g fill="none">
    <path d="M20 14.92v3a2 2 0 0 1-2.18 2 19.791 19.791 0 0 1-8.63-3.07 19.5 19.5 0 0 1-6-6A19.79 19.79 0 0 1 .12 2.18 2 2 0 0 1 2.11 0h3a2 2 0 0 1 2 1.72c.127.96.361 1.903.7 2.81a2 2 0 0 1-.45 2.11L6.09 7.91a16 16 0 0 0 6 6l1.27-1.27a2 2 0 0 1 2.11-.45c.907.339 1.85.574 2.81.7A2 2 0 0 1 20 14.92Z" fill="currentColor"/>
</g></symbol><symbol id="soc_insta" viewBox="0 0 58 58"><g fill="none">
    <path fill-rule="evenodd" clip-rule="evenodd" d="M29 58c16.016 0 29-12.984 29-29S45.016 0 29 0 0 12.984 0 29s12.984 29 29 29Zm-3.535-32.535a5 5 0 1 1 7.07 7.07 5 5 0 0 1-7.07-7.07Zm1.238 5.83a3.248 3.248 0 1 0 4.594-4.593 3.248 3.248 0 0 0-4.594 4.594ZM34 25a1 1 0 1 0 0-2 1 1 0 0 0 0 2Zm3.317-4.323a5.106 5.106 0 0 1 1.153 1.767c.297.787.455 1.618.468 2.459.062 1.06.062 1.405.062 4.114 0 2.709-.014 3.047-.062 4.114a7.296 7.296 0 0 1-.466 2.424 5.115 5.115 0 0 1-2.924 2.92 7.355 7.355 0 0 1-2.428.464C32.06 39 31.712 39 29 39s-3.05-.014-4.12-.061a7.321 7.321 0 0 1-2.427-.499 5.12 5.12 0 0 1-2.925-2.919 7.307 7.307 0 0 1-.466-2.425C19 32.035 19 31.69 19 28.982c0-2.709.014-3.047.062-4.114a7.293 7.293 0 0 1 .465-2.424 5.1 5.1 0 0 1 2.925-2.918 7.287 7.287 0 0 1 2.425-.466c1.061-.06 1.409-.06 4.12-.06 2.713 0 3.052.013 4.121.06.83.017 1.65.174 2.428.466a5.116 5.116 0 0 1 1.77 1.15Zm-.545 14.209c.221-.6.338-1.233.346-1.872v.001h.012c.047-1.06.047-1.35.047-4.052 0-2.702-.012-2.998-.06-4.053a5.624 5.624 0 0 0-.345-1.85 3.316 3.316 0 0 0-1.901-1.899 5.516 5.516 0 0 0-1.855-.345c-1.074-.06-1.352-.06-4.058-.06-2.707 0-3.003.013-4.06.06a5.571 5.571 0 0 0-1.853.345 3.314 3.314 0 0 0-1.91 1.899 5.579 5.579 0 0 0-.345 1.87c-.058 1.075-.058 1.351-.058 4.053s.01 2.999.058 4.052c.01.632.127 1.258.346 1.851a3.309 3.309 0 0 0 1.909 1.897c.593.22 1.22.337 1.853.345 1.076.061 1.352.061 4.06.061 2.705 0 3.003-.012 4.058-.06a5.544 5.544 0 0 0 1.855-.346 3.32 3.32 0 0 0 1.901-1.897Z" fill="currentColor"/>
</g></symbol><symbol id="soc_vk" viewBox="0 0 58 58"><g fill="none">
    <path fill-rule="evenodd" clip-rule="evenodd" d="M58 29c0 16.016-12.984 29-29 29S0 45.016 0 29 12.984 0 29 0s29 12.984 29 29ZM22.71 19A3.725 3.725 0 0 0 19 22.71v12.58A3.725 3.725 0 0 0 22.71 39h12.58A3.725 3.725 0 0 0 39 35.29V22.71A3.725 3.725 0 0 0 35.29 19H22.71Zm12.58 1.818c1.054 0 1.892.838 1.892 1.893v12.578a1.881 1.881 0 0 1-1.893 1.893H22.711a1.88 1.88 0 0 1-1.893-1.893V22.711c0-1.055.838-1.893 1.893-1.893h12.578ZM34.326 26c.398 0 .48.172.398.406-.167.644-1.767 2.541-1.767 2.541-.14.188-.195.281 0 .492.069.08.215.201.382.34.173.142.367.302.522.456.564.535.989.985 1.108 1.295.108.312-.08.47-.455.47h-1.313c-.352 0-.529-.166-.911-.524a14.813 14.813 0 0 0-.626-.562c-.78-.632-1.113-.714-1.308-.714-.264 0-.343.063-.343.379v.991c0 .272-.103.43-.938.43-1.391 0-2.919-.711-4.003-2.022C23.445 28.058 23 26.605 23 26.313c0-.164.075-.313.45-.313h1.314c.335 0 .461.123.585.43.643 1.574 1.725 2.95 2.17 2.95.167 0 .244-.064.244-.421V27.33c-.03-.463-.222-.663-.365-.812-.088-.091-.157-.163-.157-.265 0-.124.126-.254.334-.254h2.064c.278 0 .37.125.37.406v2.19c0 .234.126.316.21.316.166 0 .305-.082.611-.34.946-.89 1.613-2.26 1.613-2.26.084-.163.238-.312.572-.312h1.312Z" fill="currentColor"/>
</g></symbol><symbol id="star" viewBox="0 0 21 20"><g fill="none">
    <path d="M19.663 7.272a1 1 0 0 1 .33.462 1 1 0 0 1-.32 1.02l-4.13 4 1 5.68a1 1 0 0 1-.99 1.19.93.93 0 0 1-.46-.12l-5.1-2.68-5.12 2.67a1 1 0 0 1-1.45-1.07l1-5.68-4.13-4a1 1 0 0 1-.25-1 1 1 0 0 1 .81-.68l5.69-.84 2.55-5.16a1 1 0 0 1 1.8 0l2.55 5.17 5.69.83a1 1 0 0 1 .53.208Z" fill="currentColor"/>
</g></symbol><symbol id="tagree" viewBox="0 0 56 17"><g fill="none">
    <g fill="currentColor">
        <path d="M5.464 12.695H3.27a3.15 3.15 0 0 1-1.276-.262 3.309 3.309 0 0 1-1.037-.704 3.6 3.6 0 0 1-.698-1.066A3.227 3.227 0 0 1 0 9.375V.604L2.393 0v3.843h1.396l.598 2.414H2.393v3.118c0 .255.086.47.26.644a.84.84 0 0 0 .617.261h1.596l.598 2.415ZM15.863 2.615v10.08H13.47v-5.03c0-.805-.28-1.489-.838-2.052a2.757 2.757 0 0 0-2.034-.845 2.91 2.91 0 0 0-1.116.221 2.862 2.862 0 0 0-.918.624 2.806 2.806 0 0 0-.837 2.052c0 .791.279 1.469.837 2.032.266.282.572.496.918.644.359.134.73.201 1.116.201.4 0 .758-.067 1.077-.201l.858 2.152c-.612.309-1.323.463-2.134.463a5.1 5.1 0 0 1-2.034-.402 5.065 5.065 0 0 1-1.596-1.147 5.252 5.252 0 0 1-1.056-1.69 5.567 5.567 0 0 1-.38-2.052c0-.738.127-1.428.38-2.072a5.252 5.252 0 0 1 1.056-1.69 4.807 4.807 0 0 1 1.596-1.127 4.892 4.892 0 0 1 2.034-.422c.651 0 1.23.1 1.735.302.505.2.95.456 1.336.764v-.805h2.393ZM27.49 11.689c0 .724-.14 1.408-.42 2.052a5.188 5.188 0 0 1-1.116 1.69 5.41 5.41 0 0 1-1.675 1.147 5.03 5.03 0 0 1-2.054.422 5.053 5.053 0 0 1-1.695-.282 5.279 5.279 0 0 1-1.476-.804l1.735-1.73c.425.268.904.402 1.436.402.81 0 1.489-.289 2.034-.865.558-.564.837-1.24.837-2.032V7.645c0-.778-.279-1.462-.837-2.052a2.757 2.757 0 0 0-2.034-.845c-.772 0-1.45.282-2.034.845-.559.59-.838 1.274-.838 2.052 0 .805.28 1.489.838 2.052.585.563 1.262.845 2.034.845.398 0 .757-.067 1.076-.201l.898 2.253a5.121 5.121 0 0 1-1.934.362h-.04a5.194 5.194 0 0 1-2.034-.402 5.41 5.41 0 0 1-2.812-2.837 5.151 5.151 0 0 1-.419-2.072 5.9 5.9 0 0 1 .359-2.072c.24-.644.572-1.207.997-1.69a4.648 4.648 0 0 1 1.556-1.127 4.709 4.709 0 0 1 1.994-.422c.691 0 1.303.107 1.834.322a5.37 5.37 0 0 1 1.396.764v-.784h2.393v9.053ZM31.084 3.4a5.173 5.173 0 0 1 1.256-.764 4.132 4.132 0 0 1 1.615-.302v2.414c-.797 0-1.475.282-2.034.845-.558.59-.837 1.274-.837 2.052v5.05H28.69V2.615h2.393V3.4ZM42.014 8.872h-5.225c.133.309.325.584.578.825.28.282.592.496.937.644.346.134.712.201 1.097.201.545 0 1.03-.127 1.456-.382l2.493 1.006a5.144 5.144 0 0 1-1.735 1.327 5.281 5.281 0 0 1-2.214.463 5.246 5.246 0 0 1-2.054-.402 5.41 5.41 0 0 1-2.812-2.837 5.322 5.322 0 0 1-.398-2.052c0-.738.132-1.428.398-2.072a5.464 5.464 0 0 1 1.137-1.69 5.136 5.136 0 0 1 1.675-1.127 5.03 5.03 0 0 1 2.054-.422c.731 0 1.416.14 2.054.422a5.136 5.136 0 0 1 1.675 1.127c.479.483.851 1.046 1.117 1.69.28.644.419 1.334.419 2.072 0 .43-.047.832-.14 1.207h-2.512ZM39.4 4.768c-.77 0-1.449.282-2.034.845a2.73 2.73 0 0 0-.578.845h5.225a2.733 2.733 0 0 0-.579-.845 2.757 2.757 0 0 0-2.034-.845ZM53.348 8.872h-5.225c.133.309.326.584.578.825.28.282.592.496.938.644.345.134.71.201 1.096.201.545 0 1.03-.127 1.456-.382l2.493 1.006a5.143 5.143 0 0 1-1.735 1.327 5.281 5.281 0 0 1-2.214.463 5.245 5.245 0 0 1-2.054-.402 5.41 5.41 0 0 1-2.811-2.837 5.322 5.322 0 0 1-.4-2.052c0-.738.134-1.428.4-2.072a5.464 5.464 0 0 1 1.136-1.69 5.136 5.136 0 0 1 1.675-1.127 5.03 5.03 0 0 1 2.054-.422c.732 0 1.416.14 2.054.422a5.136 5.136 0 0 1 1.675 1.127c.48.483.851 1.046 1.117 1.69.28.644.419 1.334.419 2.072 0 .43-.047.832-.14 1.207h-2.512Zm-2.613-4.104c-.77 0-1.449.282-2.034.845a2.733 2.733 0 0 0-.578.845h5.225a2.73 2.73 0 0 0-.579-.845 2.757 2.757 0 0 0-2.034-.845Z"/>
    </g>
</g></symbol><symbol id="user" viewBox="0 0 21 18"><g fill="none">
    <path d="M11.3 9.22A4.92 4.92 0 0 0 13 5.5a5 5 0 0 0-10 0 4.92 4.92 0 0 0 1.7 3.72A8 8 0 0 0 0 16.5a1 1 0 1 0 2 0 6 6 0 1 1 12 0 1 1 0 0 0 2 0 8 8 0 0 0-4.7-7.28ZM8 8.5a3 3 0 1 1 0-6 3 3 0 0 1 0 6Zm11.71-2.37a1 1 0 0 0-1.42 0l-2 2-.62-.63a1 1 0 1 0-1.42 1.41l1.34 1.34a1 1 0 0 0 1.41 0l2.67-2.67a1 1 0 0 0 .04-1.45Z" fill="currentColor"/>
</g></symbol><symbol id="x"><g fill="none">
    <path d="m7.409 6 4.295-4.287a1.003 1.003 0 0 0-1.418-1.42L6 4.59 1.714.294A1.003 1.003 0 1 0 .296 1.713L4.59 5.999.296 10.286a1 1 0 0 0 0 1.418 1 1 0 0 0 1.418 0L6 7.408l4.286 4.296a.998.998 0 0 0 1.418 0 1 1 0 0 0 0-1.418L7.41 5.999Z" fill="#fff"/>
</g></symbol></svg>