<svg viewBox="0 0 21 20" fill="none" xmlns="http://www.w3.org/2000/svg">
<path d="M19.663 7.27161C19.8156 7.39054 19.9305 7.5512 19.9936 7.73411C20.0423 7.91698 20.038 8.1099 19.9814 8.29046C19.9247 8.47101 19.818 8.63179 19.6736 8.75411L15.5436 12.7541L16.5436 18.4341C16.5793 18.6216 16.5606 18.8154 16.4898 18.9926C16.4189 19.1698 16.2988 19.323 16.1436 19.4341C15.972 19.5583 15.7655 19.6249 15.5536 19.6241C15.3925 19.6246 15.234 19.5833 15.0936 19.5041L9.99363 16.8241L4.87363 19.4941C4.7094 19.5812 4.52415 19.6208 4.33868 19.6084C4.1532 19.596 3.97485 19.5322 3.82363 19.4241C3.66848 19.313 3.54838 19.1598 3.4775 18.9826C3.40662 18.8054 3.38793 18.6116 3.42363 18.4241L4.42363 12.7441L0.29363 8.74411C0.165087 8.61584 0.0739014 8.45498 0.0298575 8.2788C-0.0141863 8.10263 -0.00942525 7.91778 0.0436298 7.74411C0.10159 7.56638 0.208206 7.40846 0.35138 7.28827C0.494554 7.16807 0.668552 7.09042 0.85363 7.06411L6.54363 6.22411L9.09363 1.06411C9.17551 0.895039 9.30337 0.752452 9.46254 0.652683C9.62171 0.552915 9.80577 0.5 9.99363 0.5C10.1815 0.5 10.3655 0.552915 10.5247 0.652683C10.6839 0.752452 10.8117 0.895039 10.8936 1.06411L13.4436 6.23411L19.1336 7.06411C19.3264 7.08061 19.5103 7.15269 19.663 7.27161Z" fill="currentColor"/>
</svg>
