<svg xmlns="http://www.w3.org/2000/svg"><symbol id="bem" viewBox="50 -50 200 200">
    <circle fill="#ff4a46" cx="150.5" cy="50" r="100"/>
    <g id="a">
        <path fill="#fc0" d="M180.6-2.6l20.1-11.7-20.1-11.4L160.5-14l20.1 11.4z"/>
        <path fill="#f68e22" d="M180.6-2.6v26.4L201 12v-26.3zM172-21v4.6c0 2.7 3.8 4.8 8.5 4.8 4.1 0 8.5-1.6 8.5-3.8v-5.5h-17v-.1z"/>
        <ellipse fill="#f6c11a" cx="180.5" cy="-21.2" rx="8.5" ry="4.8"/>
        <path fill="#f2a41f" d="M180.6 23.8l-20.1-11.4v-26.3l20.1 11.3z"/>
    </g>
    <use xlink:href="#a" x="-20" y="11.6" xmlns:xlink="http://www.w3.org/1999/xlink"/>
    <use xlink:href="#a" x="-40" y="23.2" xmlns:xlink="http://www.w3.org/1999/xlink"/>
    <use xlink:href="#a" x="-60" y="34.8" xmlns:xlink="http://www.w3.org/1999/xlink"/>
    <use xlink:href="#a" x="-20" y="34.5" xmlns:xlink="http://www.w3.org/1999/xlink"/>
    <use xlink:href="#a" x="-80" y="46.4" xmlns:xlink="http://www.w3.org/1999/xlink"/>
    <use xlink:href="#a" y="45.8" xmlns:xlink="http://www.w3.org/1999/xlink"/>
    <use xlink:href="#a" x="-20" y="57.3" xmlns:xlink="http://www.w3.org/1999/xlink"/>
    <use xlink:href="#a" x="-60" y="57.6" xmlns:xlink="http://www.w3.org/1999/xlink"/>
    <use xlink:href="#a" x="-40" y="68.8" xmlns:xlink="http://www.w3.org/1999/xlink"/>
    <use xlink:href="#a" x="-40" y="91.8" xmlns:xlink="http://www.w3.org/1999/xlink"/>
    <use xlink:href="#a" x="-20" y="103.2" xmlns:xlink="http://www.w3.org/1999/xlink"/>
</symbol><symbol id="css3" viewBox="0 0 512 512">
    <path d="M512 256c0 141.385-114.615 256-256 256S0 397.385 0 256 114.615 0 256 0s256 114.615 256 256z" fill="#294e82"/>
    <path fill="#fff" fill-rule="evenodd" d="M345.373 386.024L366 162.589H146l20.624 223.435 89.375 24.066z"/>
    <path fill="#fff" fill-rule="evenodd" d="M328.527 371.475l16.694-190.788h-89.223v210.21l.202.053zM190.723 143.04h33.955v-13.279h-19.403v-13.298h19.403V101.91h-33.955v41.13zm48.466-26.577c4.543 4.543 6.912 6.717 13.483 13.289-3.84 0-13.483.014-13.483.012v13.277h33.958v-13.28l-13.564-13.298h13.564V101.91h-33.958v14.553zm82.088-14.553h-33.96v14.553c4.543 4.543 6.914 6.717 13.485 13.289-3.84 0-13.484.014-13.484.012v13.277h33.96v-13.28l-13.565-13.298h13.564V101.91z"/>
    <path d="M186.102 207.694l4 27.25 69.5-.5-67 28.25 1.75 27h95l-2.25 35.5-30.5 9.25-31-8.5-1.75-21.25h-27.25l3.5 41.75 55.75 16.25 56.75-15.75 7-84.25h-64.25l66.75-28.25 2-27z" fill="#294e82"/>
</symbol><symbol id="design" viewBox="0 0 128 128">
    <circle cx="64" cy="64" fill="#366" r="64"/>
    <path d="M74.736 87l3.292-.277s-2.643-.151-3.175-2.595l-.004-.012L71.77 70h-11.6L57 83.986v.003c-1 2.444-3.13 2.733-3.13 2.733l3.336.278h17.53z" fill="#CED7DD"/>
    <path d="M81 87.237a.764.764 0 0 1-.763.763H51.763a.764.764 0 0 1-.763-.763v-.474c0-.421.342-.763.763-.763h28.474c.421 0 .763.342.763.763v.474zM30 72v2a4 4 0 0 0 4 4h64a4 4 0 0 0 4-4v-2H30z" fill="#EBEDED"/>
    <path d="M102 72V30.004A4.002 4.002 0 0 0 98 26H34c-2.209 0-4 1.793-4 4.004V72h72z" fill="#333"/>
    <path d="M98 67a1 1 0 0 1-1 1H35a1 1 0 0 1-1-1V31a1 1 0 0 1 1-1h62a1 1 0 0 1 1 1v36z" fill="#699"/>
    <circle cx="66" cy="28" fill="#2BBCED" r=".638"/>
    <circle cx="66" cy="75" fill="#333" r="1"/>
    <path fill="#CFC5FF" d="M37 33h58v8H37zM37 44h18v21H37zM57 44h18v21H57zM77 44h18v21H77z"/>
    <path d="M108 96a2 2 0 0 1-2 2H86a2 2 0 0 1-2-2V86a2 2 0 0 1 2-2h20a2 2 0 0 1 2 2v10z" fill="#EBEEEF"/>
    <path d="M107 96a1 1 0 0 1-1 1H88a1 1 0 0 1-1-1V86a1 1 0 0 1 1-1h18a1 1 0 0 1 1 1v10z" fill="#699"/>
    <circle cx="85.5" cy="91" fill="#333" r=".5"/>
    <g>
        <path d="M47 96a2 2 0 0 1-2 2H21a2 2 0 0 1-2-2V60a2 2 0 0 1 2-2h24a2 2 0 0 1 2 2v36z" fill="#EBEEEF"/>
        <path d="M45 93a1 1 0 0 1-1 1H22a1 1 0 0 1-1-1V61a1 1 0 0 1 1-1h22a1 1 0 0 1 1 1v32z" fill="#699"/>
        <path d="M34 96a1 1 0 0 1-2 0 1 1 0 0 1 2 0z" fill="#333"/>
    </g>
    <path fill="#CFC5FF" d="M23 62h20v4H23zM88 86h18v2H88zM88 89h18v7H88zM23 68h9v11h-9zM34 68h9v11h-9zM23 81h9v11h-9zM34 81h9v11h-9z"/>
</symbol><symbol id="git" viewBox="0 0 1024 1024">
    <path d="M512 0C229.25 0 0 229.25 0 512c0 226.25 146.688 418.125 350.156 485.812 25.594 4.688 34.938-11.125 34.938-24.625 0-12.188-.469-52.562-.719-95.312C242 908.812 211.906 817.5 211.906 817.5c-23.312-59.125-56.844-74.875-56.844-74.875-46.531-31.75 3.53-31.125 3.53-31.125 51.406 3.562 78.47 52.75 78.47 52.75 45.688 78.25 119.875 55.625 149 42.5 4.654-33 17.904-55.625 32.5-68.375-113.656-12.937-233.218-56.875-233.218-253.063 0-55.938 19.969-101.562 52.656-137.406-5.219-13-22.844-65.094 5.062-135.562 0 0 42.938-13.75 140.812 52.5 40.812-11.406 84.594-17.031 128.125-17.219 43.5.188 87.312 5.875 128.188 17.281 97.688-66.312 140.688-52.5 140.688-52.5 28 70.531 10.375 122.562 5.125 135.5 32.812 35.844 52.625 81.469 52.625 137.406 0 196.688-119.75 240-233.812 252.688 18.438 15.875 34.75 47 34.75 94.75 0 68.438-.688 123.625-.688 140.5 0 13.625 9.312 29.562 35.25 24.562C877.438 930 1024 738.125 1024 512 1024 229.25 794.75 0 512 0z"/>
</symbol><symbol id="google-plus1" viewBox="0 0 128 128">
    <path d="M49.211 70.989h16.882c-1.939 7.841-7.911 12.214-17.033 12.214-10.781 0-19.554-8.615-19.554-19.202 0-10.59 8.772-19.204 19.554-19.204 4.715 0 9.268 1.671 12.821 4.706l8.116-9.161c-5.803-4.958-13.238-7.689-20.937-7.689-17.6 0-31.917 14.063-31.917 31.347 0 17.283 14.317 31.345 31.917 31.345 17.994 0 30.083-12.229 30.083-30.427v-6.073H49.211v12.144z" fill="#fff"/>
</symbol><symbol id="google-plus2" viewBox="0 0 30 30">
    <path fill="#fff" d="M11 19v11h8V19h11v-8H19V0h-8v11H0v8z"/>
</symbol><symbol id="gulp" viewBox="0 0 600 600" preserveAspectRatio="xMinYMin meet">
    <circle cx="300" cy="300" fill="#e6e6e6" r="300"/>
    <path d="M369.28 548.749l5.427-90.43 14.985-25.58s-34.106 13.952-91.205 13.952c-57.1 0-90.689-13.694-90.689-13.694l16.794 27.904 5.941 87.848c0 9.418 31.059 17.052 69.374 17.052 38.313 0 69.373-7.634 69.373-17.052m-17.119-422.295l11.391-45.025 63.081-66.376L410.007.892l-66.784 70.707-13.226 53.793a886.14 886.14 0 0 0-29.873-.497c-70.336 0-127.355 8.016-127.355 17.902 0 9.887 57.019 17.902 127.355 17.902 70.335 0 127.353-8.015 127.353-17.902 0-7.28-30.924-13.546-75.316-16.343" fill="#D34A47"/>
    <path d="M345.535 151.669s-2.467.553-9.724.584c-7.259.03-12.413-.047-14.466-1.917-.552-.502-.854-1.499-.851-2.174.006-1.285.918-2.042 2.08-2.516l1.099 1.724c-.478.165-.751.36-.752.568-.004.976 7.422 1.644 13.102 1.572 5.681-.07 12.545-.538 12.551-1.5 0-.291-.519-.565-1.422-.781l1.094-1.712c1.472.457 2.757 1.34 2.754 2.868-.014 2.598-3.32 2.993-5.465 3.284" fill="#FFF"/>
    <path d="M426.509 15.184c1.586-1.832-.821-6.518-5.376-10.465C416.576.774 411.596-.94 410.007.892c-1.587 1.832.821 6.518 5.378 10.463 4.555 3.946 9.537 5.662 11.124 3.829m-60.263 312.681c-1.495-14.384 31.462-35.216 23.004-35.883-18.208 1.041-27.27 21.338-36.431 42.596-3.357 7.791-14.844 41.013-22.378 36.923-7.532-4.088 9.765-31.407 14.613-47.631-5.594 4.102-26.109 20.041-31.396 5.114-8.5 7.219-26.663 11.13-24.614-7.833-4.522 8.01-14.671 19.193-26.853 14.546-15.998-6.101 9.27-57.062 15.553-54.491 6.284 2.57-1.268 14.179-3.246 18.687-4.35 9.921-9.375 22.393-6.018 24.946 5.751 4.374 21.401-16.547 21.749-17.007 2.927-3.867 11.266-29.166 17.987-26.261 6.721 2.905-16.764 36.308-7.983 42.937 1.771 1.338 9.017-.825 13.425-5.594 2.852-3.085 1.871-9.918 11.378-32.59 9.507-22.671 17.98-50.905 24.5-48.754 6.52 2.15 1.146 16.641-1.193 22.043-10.976 25.354-29.956 67.241-21.005 64.07 8.951-3.17 13.612-3.356 22.377-13.613 8.765-10.257 8.361-27.152 14.203-26.793 5.844.36 4.863 5.777 3.446 9.902 5.75-6.58 27.256-20.438 32.448-6.713 6.15 16.249-30.769 39.72-21.564 38.523 8.975-1.167 23.515-10.376 29.723-18.749l17.088-153.626s-17.195 14.23-126.589 14.23c-109.395 0-124.811-13.934-124.811-13.934l14.548 140.224c7.722-21.947 26.059-66.339 54.963-64.849 13.148.678 30.7 25.995 15.665 26.853-6.364.362-7.01-12.637-14.546-14.546-5.438-1.378-13.009 3.043-17.902 7.833-9.758 9.55-30.745 47.229-27.972 66.014 3.533 23.949 33.048-8.322 38.042-17.903 3.517-6.749 5.893-26.745 13.585-24.647 7.693 2.098-.671 22.734-6.247 40.979-6.264 20.487-9.557 42.098-17.408 39.612-7.852-2.484 4.938-28.932 4.475-33.566-7.38 6.809-20.976 24.047-38.37 15.515l9.035 87.078s24.013 18.973 96.35 18.973c72.337 0 97.239-18.677 97.239-18.677l11.219-100.857c-9.179 8.938-38.229 24.81-40.089 6.919" fill="#D34A47"/>
</symbol><symbol id="hexagon" viewBox="0 0 612 612">
    <path d="M0 0v612h612V0zm471.686 506.374c-13.75 23.816-47.5 43.302-75 43.302H215.313c-27.5 0-61.25-19.485-75-43.302L49.628 349.301c-13.75-23.815-13.75-62.787 0-86.603l90.686-157.073c13.75-23.815 47.5-43.301 75-43.301h181.372c27.5 0 61.25 19.486 75 43.301l90.686 157.073c13.75 23.815 13.75 62.787 0 86.603z"/>
</symbol><symbol id="html5" viewBox="0 0 512 512">
    <path d="M512 256c0 141.385-114.615 256-256 256S0 397.385 0 256 114.615 0 256 0s256 114.615 256 256z" fill="#e44d26"/>
    <path fill="#fff" fill-rule="evenodd" d="M255.865 411.265l90.092-24.977L366 161.76H146l20.02 224.563zm-62.597-296.702h-12.803v-13.828h-13.996v41.876h13.996v-14.023h12.803v14.023h13.996v-41.876h-13.996v13.828zm20.081.058h12.322v27.99h13.997v-27.99h12.328v-13.886h-38.647v13.886zm68.352.828l-8.978-14.714h-14.594v41.876h13.694v-20.756l9.636 14.889h.241l9.63-14.89v20.757h13.938v-41.876h-14.6L281.7 115.45zm44.534 13.32v-28.034h-14v41.876h33.683v-13.842h-19.683z"/>
    <path d="M186.438 207.029h138.25l-2.25 28.5h-105.75l3 27.5h99.5l-7 85.25-56 15.25-56.75-15.25-4.25-43.5h27.75l2.25 21.5 30.75 8.75 30.75-8.75 3-35.25h-95.5z" fill="#e44d26"/>
</symbol><symbol id="javascript" viewBox="0 0 128 128">
    <circle cx="64" cy="64" r="64" fill="#f7df1d"/>
    <path d="M48.4 44.6h8.7v24.5c0 11-5.3 14.9-13.7 14.9-2.1 0-4.7-.3-6.4-.9l1-7.1c1.2.4 2.8.7 4.5.7 3.7 0 6-1.7 6-7.6l-.1-24.5zm16.4 29.8c2.3 1.2 6 2.4 9.7 2.4 4 0 6.1-1.7 6.1-4.3 0-2.4-1.8-3.8-6.5-5.4-6.4-2.3-10.7-5.9-10.7-11.6C63.4 49 69 44 78.1 44c4.4 0 7.6.9 9.9 2l-2 7c-1.5-.7-4.3-1.8-8-1.8-3.8 0-5.6 1.8-5.6 3.7 0 2.5 2.1 3.6 7.2 5.5 6.8 2.5 10 6.1 10 11.6 0 6.5-4.9 12-15.6 12-4.4 0-8.8-1.2-11-2.4l1.8-7.2z" fill="#323330"/>
</symbol><symbol id="less-sass" viewBox="0 0 500 500">
    <circle cx="250" cy="250" fill="#C69" r="250"/>
    <path fill="#2A4F84" d="M422.415 302.384c0 18.043-14.83 32.872-32.872 32.872H113.248c-18.042 0-32.872-14.829-32.872-32.872V197.722c0-18.042 14.83-32.872 32.872-32.872h276.295c18.042 0 32.872 14.83 32.872 32.872v104.662z"/>
    <path fill="#fff" d="M364.605 247.786c14.452 5.006 21.632 13.697 21.632 25.976 0 8.03-3.023 14.452-8.974 19.176-5.95 4.723-14.452 7.651-25.6 7.651-11.146 0-21.348-3.212-30.794-8.5.095-2.835.851-5.858 2.173-9.164 1.323-3.307 2.93-5.95 4.818-7.936 8.69 4.534 16.246 6.802 22.67 6.802 3.022 0 5.384-.473 6.99-1.51 1.605-1.04 2.456-2.362 2.456-4.064 0-3.21-2.55-5.668-7.463-7.273l-8.974-3.4c-13.603-4.912-20.309-13.035-20.309-24.182 0-8.124 2.833-14.64 8.501-19.459 5.668-4.817 13.413-8.879 23.05-8.879 4.815 0 10.011.661 15.772 1.983 5.763 1.323 10.486 4.63 14.17 6.518.188 3.022-.378 6.33-1.795 9.918-1.417 3.59-3.117 6.14-5.195 7.65-9.163-4.062-16.72-6.14-22.766-6.14-2.172 0-3.778.472-5.006 1.417-1.134.944-1.7 2.173-1.7 3.684 0 2.55 2.078 4.628 6.234 6.14l10.11 3.592zM292.532 247.786c14.452 5.006 21.632 13.697 21.632 25.976 0 8.03-3.022 14.452-8.974 19.176-5.95 4.723-14.453 7.651-25.599 7.651-11.053 0-21.348-3.212-30.794-8.5.094-2.835.85-5.858 2.173-9.164 1.322-3.307 2.928-5.95 4.816-7.936 8.69 4.534 16.247 6.802 22.671 6.802 3.022 0 5.384-.473 6.99-1.51 1.605-1.04 2.455-2.362 2.455-4.064 0-3.21-2.549-5.668-7.46-7.273l-8.975-3.4c-13.604-4.912-20.31-13.035-20.31-24.182 0-8.124 2.834-14.64 8.596-19.459 5.668-4.817 13.413-8.879 23.05-8.879 4.815 0 10.011.661 15.773 1.983 5.762 1.323 10.485 4.63 14.17 6.518.187 3.022-.379 6.33-1.796 9.918-1.417 3.59-3.117 6.14-5.195 7.65-9.163-4.062-16.72-6.14-22.765-6.14-2.173 0-3.778.472-5.007 1.417-1.133.944-1.7 2.173-1.7 3.684 0 2.55 2.078 4.628 6.235 6.14l10.014 3.592zM239.918 248.92c0-4.912-.756-9.54-2.362-13.696-1.605-4.157-3.778-7.84-6.8-10.769-2.929-3.022-6.519-5.384-10.675-7.084-4.156-1.7-8.879-4.345-14.074-4.345-6.234 0-11.618 2.834-16.247 4.912-4.629 2.173-8.408 5.101-11.43 8.88-3.022 3.777-5.195 8.217-6.707 13.318-1.51 5.101-2.172 10.674-2.172 16.72 0 6.233.566 11.995 1.794 17.285s3.212 9.824 6.14 13.697c2.834 3.872 6.612 6.896 11.241 9.067 4.628 2.173 10.296 3.778 17.192 3.778 12.563 0 23.237-3.684 31.927-9.729-.85-6.235-3.117-11.146-6.612-14.83-4.44 1.7-8.313 2.833-11.808 3.59-3.4.754-6.423 1.133-8.974 1.133-5.195 0-8.879-1.323-11.146-3.968-2.268-2.645-3.495-5.762-3.685-10.58h42.318c1.324-4.722 2.08-10.767 2.08-17.379zm-44.585 1.133c.283-5.479 1.322-11.335 3.022-13.79 1.701-2.457 4.25-3.59 7.651-3.59 3.59 0 6.234 1.322 8.03 3.873 1.793 2.55 2.644 7.745 2.644 11.713v1.794h-21.347z"/>
    <path fill="#fff" stroke="#404040" stroke-width="5.151" stroke-miterlimit="10" d="M430.916 260.821c-4.629 4.062-7.273 9.824-7.273 17.382v28.148c0 9.352-2.834 16.53-9.35 21.348-6.52 4.912-14.076 7.273-22.672 7.557h-5.1v-14.074c4.532-1.322 6.328-2.834 8.122-4.629 3.212-2.928 5.763-7.746 5.763-14.357v-22.765c.094-7.746.755-13.79 3.495-18.137 2.834-4.345 8.312-8.218 16.53-11.524-9.068-4.156-15.113-9.54-18.137-16.152-1.795-3.968-1.889-9.257-1.889-15.964V196.78c0-6.896-2.268-11.713-5.007-14.452-1.795-1.795-3.873-3.212-8.879-4.345v-13.13c6.14.094 9.162 0 12.752 0 5.48 0 10.107 2.928 14.074 6.045 4.345 3.4 7.462 8.03 9.257 13.885 1.04 3.4 1.134 6.612 1.134 9.635v24.087c0 8.501 2.55 14.831 6.801 18.986 2.456 2.362 5.856 4.628 11.713 6.612v10.862c-5.195 1.418-8.5 3.402-11.334 5.857zM107.108 164.851h-4.629c-5.479-.095-10.107 2.928-14.075 6.045-4.345 3.4-8.124 7.84-9.257 13.885-.662 3.495-.567 6.612-.567 9.635v24.087c0 8.501-3.21 14.831-7.462 18.986-2.456 2.362-7.557 4.628-13.508 6.612v10.862c5.195 1.417 10.202 3.401 13.036 5.856 4.628 4.062 7.935 9.824 7.935 17.382v28.148c0 9.352 2.267 16.53 8.69 21.348 6.518 4.912 14.075 7.273 22.67 7.557h5.762V321.18c-4.534-1.322-6.99-2.834-8.785-4.629-3.21-2.928-5.1-7.746-5.1-14.357V279.43c-.096-7.746-1.418-13.79-4.157-18.137-2.833-4.345-8.313-8.218-16.53-11.524 9.068-4.156 15.113-9.54 18.136-16.152 1.795-3.968 2.551-9.257 2.551-15.964v-20.875c0-6.896 1.605-11.713 4.345-14.452 1.511-1.512 4.156-2.74 7.935-3.685h5.856v-13.79h-12.846v.001z"/>
    <path fill="#fff" d="M161.233 279.052h-4.44c-4.817 0-6.612-2.55-6.612-7.558v-92.758c0-5.573-1.605-9.54-3.684-11.713-2.078-2.267-5.667-2.267-10.768-2.267h-11.052v111.276c0 7.744 1.701 13.411 4.818 17.002 3.117 3.59 8.313 5.384 15.68 5.384 5.101 0 10.958-.566 17.38-1.605.284-1.134.473-3.4.473-6.99.19-3.592-.473-7.18-1.795-10.77z"/>
    <g>
        <path fill="#f6f6f6" d="M385.4 100.8C381.8 86.4 371.6 74.4 356 66c-30.6-16.2-79.8-16.8-124.8-.6-27 9.6-78 31.2-116.4 66.6-38.4 36-44.4 67.8-41.4 80.4 6.6 34.8 43.2 59.4 72 79.8 7.8 5.4 15 10.2 20.4 15-16.2 8.4-60 33-72 58.8-9 20.4-4.8 35.4-1.2 42 3.6 7.8 9.6 13.8 15.6 15.6 6 1.8 12.6 2.4 19.2 2.4 25.8 0 51-13.8 66.6-37.2 15.6-23.4 16.8-54.6 9.6-73.8 10.2-2.4 21-2.4 33-1.2 23.4 3 34.8 12 40.2 19.2 6 7.8 7.2 15.6 6.6 20.4-1.2 9-8.4 14.4-12 16.8-3 1.8-5.4 3.6-4.8 7.2 1.2 4.8 6 4.2 7.8 4.2 5.4-1.2 24.6-10.8 25.8-32.4.6-13.2-4.8-26.4-15-37.2-13.2-13.8-33-21-55.8-20.4-16.8 0-28.2 1.8-37.2 4.8l-.6-.6c-8.4-9-19.8-17.4-30-25.8-24-18-46.2-35.4-45-61.2 1.8-32.4 33.6-64.2 95.4-94.8 54.6-27 99-28.2 122.4-19.8 9.6 3.6 16.2 8.4 18.6 13.8 4.8 10.2 3 23.4-5.4 37.8-13.8 24-48.6 54-102 60-32.4 3.6-46.2-10.8-46.8-11.4-3.6-4.2-6-6.6-10.2-4.2-4.8 2.4-2.4 9-1.2 11.4 2.4 6.6 12.6 18 30 24 13.8 4.8 49.2 7.8 93-9 50.4-20.4 85.2-74.4 75-115.8zm-207 255.6c-.6 1.2-.6 2.4-1.2 3.6-.6 1.2-1.2 2.4-1.2 3.6-2.4 5.4-6 10.8-10.8 15.6-13.8 15-32.4 19.2-38.4 15.6-1.8-1.2-2.4-3-3-5.4-1.2-7.2 3-21.6 15.6-34.2 15-15.6 36-27 40.8-29.4 1.8 10.8 1.2 21-1.8 30.6z"/>
    </g>
</symbol><symbol id="pixel-perfect" viewBox="0 0 250 250">
    <circle cx="125" cy="125" fill="#fff" r="125"/>
    <path d="M235 200l-125-87.5" fill="none" stroke="#838383" stroke-linecap="round" stroke-width="21"/>
    <ellipse fill="#fff" cx="75.232" cy="75.232" rx="75.232" ry="75.232" transform="translate(50 50)"/>
    <path d="M51.88 142.455v-32.847" fill="none" stroke="#e0e0e0"/>
    <path d="M104 52v143m18-143v148m18-148v148m36-130v112m21-58H53m145-18H52m135-18H63m112 90H75" fill="none" stroke="#f0f0f0"/>
    <path d="M68 80v95" fill="none" stroke="#c1c1c1"/>
    <path d="M197 142H52" fill="none" stroke="#f0f0f0"/>
    <path d="M157.5 142.5l-60-17.5v35l60-17.5" fill="#2196f3"/>
    <path d="M158 60v135" fill="none" stroke="#c1c1c1"/>
    <path d="M158 142.5l17.5-60h-35l17.5 60" fill="#2196f3"/>
    <path d="M86 62v128" fill="none" stroke="#f0f0f0"/>
    <path d="M60 160h130" fill="none" stroke="#c1c1c1"/>
    <path d="M55 142.5h45" fill="none" stroke="#2196f3" stroke-width="9"/>
    <path d="M147.5 196.5H100" fill="none" stroke="#f0f0f0"/>
    <path d="M75 70h98" fill="none" stroke="#c1c1c1"/>
    <path d="M157.5 60v30" fill="none" stroke="#2196f3" stroke-width="9"/>
    <path d="M194 95v60" fill="none" stroke="#f0f0f0"/>
    <ellipse cx="75" cy="75" fill="none" rx="75" ry="75" stroke="#838383" stroke-width="9" transform="translate(50 50)"/>
</symbol><symbol id="svg" viewBox="0 0 512 512">
    <circle cx="256" cy="256" fill="#2E3A44" r="256"/>
    <g fill="#FFF">
        <path d="M257.1 338.2l42-36.8H125.2V375h173.9l-42-36.8zm-86.5 15.1c-2.2 1.7-5.1 2.5-8.8 2.5-3.5 0-6.5-.9-9.1-2.8-2.6-1.8-3.8-4.5-3.8-7.8v-.1h5.5c0 2.1.7 3.6 2.1 4.6 1.4 1 3.1 1.6 5.2 1.6 2 0 3.6-.4 4.7-1.3s1.7-2 1.7-3.5c0-1.4-.5-2.6-1.5-3.5-1-.9-2.8-1.7-5.4-2.4-3.7-1-6.5-2.4-8.5-4-2-1.7-3-3.8-3-6.5 0-2.8 1.1-5 3.3-6.8 2.2-1.8 5-2.7 8.5-2.7 3.7 0 6.7 1 8.9 3s3.3 4.4 3.2 7.3v.1h-5.5c0-1.8-.6-3.2-1.8-4.3-1.2-1.1-2.8-1.6-4.8-1.6-1.9 0-3.4.5-4.5 1.4-1 .9-1.6 2.1-1.6 3.5 0 1.3.6 2.4 1.7 3.3 1.1.9 3 1.7 5.7 2.4 3.6 1 6.3 2.4 8.2 4.1 1.9 1.7 2.8 3.9 2.8 6.6.1 2.9-1 5.2-3.2 6.9zm25 2h-5.4L178 321.1h6.1l8.2 24.9.6 2.5h.1l.6-2.4 8.2-25h6.1l-12.3 34.2zm42.6-4.6c-.9 1.3-2.4 2.5-4.5 3.6-2.1 1-4.7 1.6-8 1.6-4 0-7.4-1.3-10-3.9-2.6-2.6-3.9-6-3.9-10.1v-7.1c0-4.1 1.3-7.5 3.8-10.1 2.5-2.6 5.8-3.9 9.7-3.9 4 0 7.1 1 9.3 3 2.2 2 3.3 4.6 3.2 7.8l-.1.1h-5.4c0-1.9-.6-3.5-1.8-4.7-1.2-1.2-2.9-1.8-5.2-1.8-2.4 0-4.3.9-5.7 2.7-1.4 1.8-2.2 4-2.2 6.7v7.2c0 2.8.8 5 2.3 6.8 1.5 1.8 3.5 2.7 5.9 2.7 1.8 0 3.3-.2 4.3-.6 1.1-.4 1.9-.9 2.4-1.5v-7.1h-7.2v-4.3H238v12.9zm145.7-183.6H366v-34.6h-40.4v34.6h-17.8c-2.5 0-3.9 2.7-2.2 4.4l38 44.1c1.2 1.1 3.2 1.1 4.3 0l38-44.1c1.8-1.7.5-4.4-2-4.4zm-58.2-56.5h40.4v15.7h-40.4z"/>
        <path d="M341.4 224v166c0 9.6-7.8 17.5-17.5 17.5h-168c-9.6 0-17.5-7.8-17.5-17.5v-9.4h-8.6v12.8c0 12.5 10.1 22.6 22.6 22.6h174.9c12.5 0 22.6-10.1 22.6-22.6V224.1c-1.3.5-2.7.8-4.1.8-1.5-.1-3-.4-4.4-.9zm-203-79.9c0-9.6 7.8-17.5 17.5-17.5h161.4V118H152.5c-12.5 0-22.6 10.1-22.6 22.6v155.2h8.6V144.1z"/>
        <path d="M299 176.6H164V189h145.7l-10.3-11.9c-.1-.1-.3-.3-.4-.5zm-135 20.2h151.8v12.4H164zm0 20.2h151.8v12.4H164zm0 20.2h151.8v12.4H164zm0 20.1h118.9v12.4H164zM366 98.6c0-1.4-1.3-2.6-2.9-2.6h-34.5c-1.6 0-2.9 1.2-2.9 2.6v5.8H366v-5.8z"/>
    </g>
</symbol><symbol id="telegram" viewBox="0 0 512 512">
    <path d="M425.101 94.198L78.753 227.785c-23.638 9.484-23.498 22.67-4.308 28.548l86.38 26.961 33.05 101.332c4.019 11.091 2.038 15.49 13.685 15.49 8.987 0 12.975-4.098 17.98-8.988 3.184-3.115 22.084-21.49 43.188-42.01l89.852 66.387c16.533 9.122 28.472 4.396 32.589-15.356l58.98-277.94c6.04-24.209-9.23-35.19-25.048-28.011zM174.381 277.1l194.702-122.838c9.72-5.895 18.631-2.726 11.314 3.77L213.682 308.45l-6.492 69.235-32.809-100.586z" fill="#fff"/>
</symbol><symbol id="vk" viewBox="0 0 512 512">
    <path d="M251.71 369.145h23.907s7.219-.798 10.91-4.77c3.397-3.65 3.288-10.501 3.288-10.501s-.471-32.08 14.42-36.803c14.68-4.655 33.527 31.003 53.504 44.713 15.107 10.376 26.588 8.104 26.588 8.104l53.418-.743s27.937-1.726 14.69-23.698c-1.084-1.793-7.72-16.25-39.716-45.949-33.503-31.094-29.012-26.061 11.337-79.838 24.57-32.75 34.397-52.739 31.324-61.305-2.926-8.157-20.998-6.006-20.998-6.006l-60.147.376s-4.457-.609-7.765 1.369c-3.23 1.936-5.305 6.454-5.305 6.454s-9.528 25.342-22.22 46.895c-26.777 45.474-37.488 47.881-41.865 45.051-10.184-6.581-7.637-26.434-7.637-40.544 0-44.072 6.684-62.45-13.021-67.204-6.54-1.579-11.353-2.626-28.075-2.795-21.458-.218-39.623.069-49.905 5.104-6.842 3.359-12.124 10.818-8.903 11.25 3.975.53 12.976 2.425 17.747 8.922 6.164 8.387 5.948 27.216 5.948 27.216s3.544 51.88-8.27 58.321c-8.11 4.422-19.23-4.602-43.11-45.861-12.23-21.131-21.467-44.497-21.467-44.497s-1.777-4.361-4.957-6.7c-3.854-2.834-9.241-3.73-9.241-3.73l-57.155.37s-8.58.244-11.725 3.976c-2.808 3.32-.225 10.182-.225 10.182s44.742 104.685 95.407 157.439c46.468 48.38 99.219 45.202 99.219 45.202z" fill="#fff"/>
</symbol><symbol id="whatsapp1" viewBox="0 0 30 30">
    <path fill="#fff" d="M5.008 24.992l.282-1.123c.325-1.206.664-2.398.975-3.603a.88.88 0 0 0 0-.583C.905 9.681 13.811-.002 21.921 7.903c8.11 7.904-1.24 21.055-11.376 15.952a.989.989 0 0 0-.61 0c-2.685.627-2.69.627-4.927 1.137zm2.287-2.22c.989-.258 1.896-.488 2.803-.732a.813.813 0 0 1 .678.095 8.126 8.126 0 0 0 5.485 1.043c8.005-1.26 9.632-12.07 2.357-15.632-7.275-3.563-14.817 4.351-10.903 11.447.312.462.383 1.047.19 1.57-.245.665-.34 1.41-.61 2.209z"/>
</symbol><symbol id="whatsapp2" viewBox="0 0 30 30">
    <path fill="#fff" d="M17.495 19.967c-1.905-.072-4.941-1.705-7.018-5.62a2.93 3.178 0 0 1 .452-4.059 1.332 1.445 0 0 1 1.252-.202c.107 0 .213.188.266.318.28.679.546 1.372.786 2.066.133.375-.106.722-.6 1.329a.426.462 0 0 0 0 .606 6.659 7.223 0 0 0 3.384 3.15.4.433 0 0 0 .519-.145c.772-1.026.852-1.329 1.332-1.127 1.97 1.026 2.117 1.07 2.13 1.3a2.144 2.326 0 0 1-2.503 2.384z"/>
</symbol></svg>